<svg xmlns="http://www.w3.org/2000/svg" version="1.1">
<rect x="0" y="0" width="100" height="20" style="fill:white;stroke:black;stroke-width:2"/>
<text x="50" y="15" text-anchor="middle" style="font-family: Arial, Helvetica, sans-serif">
(x602,1)</text>
<line x1="50" y1="20" x2="50" y2="450" style="stroke:black;stroke-width:2" />
<rect x="25" y="450" width="50" height="10" style="fill:black;stroke:black;stroke-width:2"/>
<rect x="684" y="0" width="100" height="20" style="fill:white;stroke:black;stroke-width:2"/>
<text x="734" y="15" text-anchor="middle" style="font-family: Arial, Helvetica, sans-serif">
i</text>
<line x1="734" y1="20" x2="734" y2="450" style="stroke:black;stroke-width:2" />
<rect x="709" y="450" width="50" height="10" style="fill:black;stroke:black;stroke-width:2"/>
<rect x="1368" y="0" width="100" height="20" style="fill:white;stroke:black;stroke-width:2"/>
<text x="1418" y="15" text-anchor="middle" style="font-family: Arial, Helvetica, sans-serif">
(x601,1)</text>
<line x1="1418" y1="20" x2="1418" y2="450" style="stroke:black;stroke-width:2" />
<rect x="1393" y="450" width="50" height="10" style="fill:black;stroke:black;stroke-width:2"/>
<rect x="2052" y="0" width="100" height="20" style="fill:white;stroke:black;stroke-width:2"/>
<text x="2102" y="15" text-anchor="middle" style="font-family: Arial, Helvetica, sans-serif">
(s,1)</text>
<line x1="2102" y1="20" x2="2102" y2="450" style="stroke:black;stroke-width:2" />
<rect x="2077" y="450" width="50" height="10" style="fill:black;stroke:black;stroke-width:2"/>
<line x1="50.0" y1="50" x2="734.0" y2="50" style="stroke:black;stroke-width:2" />
<line x1="724.0" y1="40" x2="734.0" y2="50" style="stroke:black;stroke-width:2" />
<line x1="724.0" y1="60" x2="734.0" y2="50" style="stroke:black;stroke-width:2" />
<text x="392.0" y="45" text-anchor="middle" style="font-family: Arial, Helvetica, sans-serif"> {{OrderRequest(1),PaymentInfo(1),NA(1)}_inv(authChCr(x602))}_(confChCr(x601))</text>
<line x1="734.0" y1="100" x2="1418.0" y2="100" style="stroke:black;stroke-width:2" />
<line x1="1408.0" y1="90" x2="1418.0" y2="100" style="stroke:black;stroke-width:2" />
<line x1="1408.0" y1="110" x2="1418.0" y2="100" style="stroke:black;stroke-width:2" />
<text x="1076.0" y="95" text-anchor="middle" style="font-family: Arial, Helvetica, sans-serif"> {{OrderRequest(1),PaymentInfo(1),NA(1)}_inv(authChCr(x602))}_(confChCr(x601))</text>
<line x1="734.0" y1="150" x2="1418.0" y2="150" style="stroke:black;stroke-width:2" />
<line x1="744.0" y1="140" x2="734.0" y2="150" style="stroke:black;stroke-width:2" />
<line x1="744.0" y1="160" x2="734.0" y2="150" style="stroke:black;stroke-width:2" />
<text x="1076.0" y="145" text-anchor="middle" style="font-family: Arial, Helvetica, sans-serif"> {|PaymentInfo(1),NB(2),NA(1),x602,x601|}_(sk(x601,s))</text>
<line x1="734.0" y1="200" x2="2102.0" y2="200" style="stroke:black;stroke-width:2" />
<line x1="2092.0" y1="190" x2="2102.0" y2="200" style="stroke:black;stroke-width:2" />
<line x1="2092.0" y1="210" x2="2102.0" y2="200" style="stroke:black;stroke-width:2" />
<text x="1418.0" y="195" text-anchor="middle" style="font-family: Arial, Helvetica, sans-serif"> {|PaymentInfo(1),NB(2),NA(1),x602,x601|}_(sk(x601,s))</text>
<line x1="734.0" y1="250" x2="2102.0" y2="250" style="stroke:black;stroke-width:2" />
<line x1="744.0" y1="240" x2="734.0" y2="250" style="stroke:black;stroke-width:2" />
<line x1="744.0" y1="260" x2="734.0" y2="250" style="stroke:black;stroke-width:2" />
<text x="1418.0" y="245" text-anchor="middle" style="font-family: Arial, Helvetica, sans-serif"> {|OrderConfirmation(3),x602,x601,NA(1),NB(2)|}_(sk(x601,s)),{|OrderConfirmation(3),x602,x601,NA(1)|}_(sk(x602,s))</text>
<line x1="734.0" y1="300" x2="1418.0" y2="300" style="stroke:black;stroke-width:2" />
<line x1="1408.0" y1="290" x2="1418.0" y2="300" style="stroke:black;stroke-width:2" />
<line x1="1408.0" y1="310" x2="1418.0" y2="300" style="stroke:black;stroke-width:2" />
<text x="1076.0" y="295" text-anchor="middle" style="font-family: Arial, Helvetica, sans-serif"> {|OrderConfirmation(3),x602,x601,NA(1),NB(2)|}_(sk(x601,s)),x512</text>
<line x1="734.0" y1="350" x2="1418.0" y2="350" style="stroke:black;stroke-width:2" />
<line x1="744.0" y1="340" x2="734.0" y2="350" style="stroke:black;stroke-width:2" />
<line x1="744.0" y1="360" x2="734.0" y2="350" style="stroke:black;stroke-width:2" />
<text x="1076.0" y="345" text-anchor="middle" style="font-family: Arial, Helvetica, sans-serif"> {{x512,Ticket(4)}_inv(authChCr(x601))}_(confChCr(x602))</text>
</svg>